<svg width="28" height="40" viewBox="0 0 28 40" fill="none" xmlns="http://www.w3.org/2000/svg">
<path d="M13.8633 0.404436C13.9813 0.157259 14.2298 0 14.5026 0H26.8737C27.3957 0 27.7387 0.547628 27.513 1.0206L9.10643 39.5955C8.88104 40.0678 8.24251 40.1425 7.91526 39.7347L0.157131 30.0677C-0.014461 29.8539 -0.0484743 29.56 0.0697087 29.3123L13.8633 0.404436Z" fill="#E4E4E4"/>
<path d="M28 28.9758C28 31.2057 26.2012 33.0134 23.9823 33.0134C21.7634 33.0134 19.9646 31.2057 19.9646 28.9758C19.9646 26.7459 21.7634 24.9382 23.9823 24.9382C26.2012 24.9382 28 26.7459 28 28.9758Z" fill="#0092FF"/>
</svg>
